<?xml version="1.0" encoding="UTF-8" standalone="no"?>
<svg
   version="1.1"
   viewBox="0 0 1422 800"
   opacity="0.1"
   preserveAspectRatio="xMinYMid"
   enable-background="new 0 0 1024 1008"
   xml:space="preserve"
   id="svg1"
   sodipodi:docname="gpull.svg"
   inkscape:version="1.3.2 (091e20e, 2023-11-25, custom)"
   xmlns:inkscape="http://www.inkscape.org/namespaces/inkscape"
   xmlns:sodipodi="http://sodipodi.sourceforge.net/DTD/sodipodi-0.dtd"
   xmlns="http://www.w3.org/2000/svg"
   xmlns:svg="http://www.w3.org/2000/svg"><defs
   id="defs1" /><sodipodi:namedview
   id="namedview1"
   pagecolor="#ffffff"
   bordercolor="#000000"
   borderopacity="0.25"
   inkscape:showpageshadow="2"
   inkscape:pageopacity="0.0"
   inkscape:pagecheckerboard="0"
   inkscape:deskcolor="#d1d1d1"
   inkscape:zoom="32"
   inkscape:cx="224.14063"
   inkscape:cy="215.10938"
   inkscape:window-width="2560"
   inkscape:window-height="1369"
   inkscape:window-x="-8"
   inkscape:window-y="-8"
   inkscape:window-maximized="1"
   inkscape:current-layer="svg1" />
<path
   id="path1"
   style="stroke-width:1"
   inkscape:label="path1"
   d="m 970.1875,-1.3046875 c -1.39023,0.081684 -2.22651,1.66569858 -3.00195,2.890625 -2.12745,3.360873 -4.21631,6.6635943 -9.89063,5.2128906 3.33444,5.2287589 0.19006,7.0394739 -2.88281,9.2773439 -3.03115,2.207464 -3.78189,6.61666 -7.3457,8.419922 -0.62783,0.317665 -1.79054,-0.06852 -2.5586,-0.4375 -4.81751,-2.314404 -10.38632,-2.867492 -14.58789,-6.740235 -1.78909,-1.649044 -4.56448,-2.644234 -7.0918,-1.820312 -2.45553,0.80058 -4.60703,0.221066 -6.8789,-0.285156 -17.34007,-3.863671 -34.84238,-5.3064197 -52.63086,-4.570313 -32.71712,1.353852 -63.36258,9.958849 -91.93164,25.726563 -14.5715,8.042322 -28.27885,17.358335 -38.82617,30.701171 -7.01319,8.872084 -10.80888,19.595621 -17.27149,28.726563 -12.88697,18.207755 -21.68932,38.217725 -27.1875,59.783205 -9.95096,39.03079 -9.99688,78.55848 -5.91797,118.26562 0.37327,3.63401 -0.71206,5.34861 -3.67578,6.74024 -8.99709,4.22438 -18.23831,7.82768 -27.61719,11.09375 -48.64717,16.94069 -98.7233,22.17489 -149.89062,18.03906 -3.83375,-0.30985 -8.73062,0.54674 -11.30859,-2.55859 -3.68362,-4.43716 -8.35809,-3.99585 -13.02149,-5.13672 -6.1014,-1.49278 -15.35142,2.5096 -16.53125,-9.34766 -1.01918,1.33839 -1.71982,1.83447 -1.76562,2.38477 -0.49007,5.88247 -3.8483,6.28262 -8.57227,4.84765 -13.63554,-4.14188 -27.45552,-7.72153 -40.94922,-12.27539 -60.13912,-20.29588 -118.11306,-45.72403 -174.76562,-74.26367 -6.32362,-3.18563 -12.60243,-6.44517 -17.52725,-9.40844 -1.25693,-0.75629 -5.8171,-2.82844 -6.40019,-4.08643 -1.49576,-3.22703 -10.48158,-6.47565 -16.97881,-9.56763 0.46669,-1.41421 1.01888,-2.5676 1.20898,-3.77734 0.32919,-2.09481 -1.02204,-3.34665 -2.64648,-4.29883 -3.43693,-1.49667 -7.04522,2.33928 -10.3153,3.82004 -0.62384,0.28201 -8.49277,-3.95658 -14.54268,-6.99716 C 114.91541,152.93471 2.3166692,84.89963 -0.07861865,83.844321 l -0.44386117,11.857153 c 0,4.265918 48.88795482,32.093086 97.05015182,57.903306 27.013318,14.47649 52.979998,28.00065 70.435268,37.91018 2.74347,1.5575 7.12059,4.00519 7.08066,5.17095 -2.01358,5.91292 -2.87245,4.29063 1.44468,9.52698 1.9205,0.21694 6.60674,1.2081 7.42383,-0.1543 2.2183,-3.699 4.86641,-2.67002 7.83008,-1.10742 3.51066,1.85096 7.81612,3.06469 11.41015,4.75391 1.89763,0.89188 3.48192,-0.28145 5.37799,0.60505 46.42942,21.70775 93.18446,44.75091 140.83686,63.88323 30.85543,12.38838 62.03541,23.72698 94.65039,30.55469 6.739,1.41071 13.37202,1.93292 13.29492,11.08203 -5e-4,0.0609 0.31777,0.12321 1.25195,0.4668 0.96078,-6.47174 5.44975,-4.21686 9.42774,-3.6504 3.21225,0.45741 6.58886,0.32485 9.63086,1.28516 6.08333,1.92022 11.57705,-2.0124 17.51367,-1.15625 13.92391,2.00826 27.88574,3.62014 41.94336,4.52734 43.01285,2.77559 85.0474,-1.83107 125.8457,-16.125 7.42814,-2.60249 14.74374,-5.52699 22.45313,-8.43164 2.31351,11.63662 4.54273,22.84907 6.68164,33.60743 -1.66435,2.26969 -4.59796,1.83122 -5.41016,4.33007 0.95112,3.14848 2.85999,2.75967 5.47852,1.98243 4.78818,-1.42129 9.71096,-3.19166 14.4375,0.58789 1.92385,1.53835 3.44006,0.52082 4.05273,-1.62891 1.43692,-5.04211 4.97671,-8.22458 9.24414,-10.82617 1.76213,-1.07425 3.40024,-2.24709 2.03516,-4.67969 -3.57088,-1.54952 -5.85419,3.49045 -9.44922,1.98438 0.50678,-2.88094 2.9454,-4.78857 2.80469,-7.58399 -5.72613,-3.54523 -4.97014,-9.66534 -6.06055,-14.87695 -2.73328,-13.06324 -2.57983,-13.08049 8.64648,-20.13086 3.00147,-1.88498 5.59629,-4.38174 9.78516,-2.13281 1.49519,0.80271 5.30155,-0.13361 4.36328,-2.9336 -1.25399,-3.74234 0.82522,-4.90858 3.00977,-6.45312 32.0859,-22.68489 61.41517,-48.6433 89.32226,-76.1875 38.7339,-38.23006 74.20748,-79.3572 106.95508,-122.818362 2.71958,-3.609243 4.77449,-3.83706 8.34961,-1.435547 10.86292,7.297027 20.75888,15.674025 29.26758,25.59961 31.64835,36.918359 40.26672,80.411889 36.59572,127.548829 -0.6398,8.21649 -5.22005,12.28748 -11.90627,14.84961 -6.14315,2.35403 -9.73087,6.64873 -10.16015,13.65234 4.02312,1.40789 7.25766,-1.29436 10.79687,-2.20117 5.33774,-1.36758 6.37873,-0.53826 5.18164,4.66406 -0.3234,1.40552 -0.71014,2.79806 -1.0918,4.18946 -7.01169,25.56264 -18.25752,49.3822 -30.0039,73.00195 -23.1921,46.63439 -50.36331,90.95586 -78.67383,134.58398 -41.98382,64.6994 -86.98697,127.28543 -133.16602,189.03907 -6.63047,8.86669 -13.57851,17.25484 -22.98046,23.4414 -3.06245,2.0152 -8.30579,3.97852 -6.66016,8.66797 1.60116,4.56281 6.94958,3.48487 10.98633,3.82422 20.30853,1.70767 40.62026,3.38005 60.92773,5.09961 1.76176,0.14914 3.80979,-0.12431 5.0332,1.49414 2.14774,2.84094 4.42258,2.10165 7.16211,0.9375 5.55614,-2.36097 10.32256,-0.71929 13.40039,4.32422 1.31533,2.1553 2.51581,4.38269 3.7129,6.60742 4.71432,8.76133 4.52931,9.35227 -4.41602,13.66211 -2.60179,1.25336 -5.25534,2.4019 -7.88477,3.59766 -18.24649,8.29805 -36.78946,15.92965 -55.57812,22.84961 -11.40744,4.20136 -17.57807,13.31458 -24.47852,22.02539 -1.34306,1.69548 -1.95722,4.28787 0.0937,5.28125 6.64126,3.21658 12.79231,8.55239 21.07813,6.23632 8.68607,-2.4279 17.3503,-4.93133 26.02929,-7.38476 11.11014,-3.1408 22.20387,-6.34609 33.35157,-9.34766 3.58225,-0.96442 7.21857,-2.14731 10.14648,2.08594 4.95513,7.16418 9.45023,8.43857 17.6836,5.52734 3.01069,-1.06461 5.25541,-1.31993 6.02929,2.62305 0.81277,4.14112 3.32027,5.06102 6.67383,2.73437 2.31164,-1.60381 4.41793,-1.82618 7.0918,-1.07421 4.72444,1.32856 9.101,0.22827 12.2207,-3.66211 3.23239,-4.03121 6.21833,-3.68776 10.12109,-0.88282 12.16754,8.74487 24.79276,16.87476 36.67969,25.97657 6.02789,4.61539 12.19456,5.72849 19.20703,4.82617 4.29495,-0.55264 8.55856,-1.35566 12.85742,-1.86914 2.75977,-0.32956 4.10539,-1.72277 4.61524,-4.41211 3.78669,-19.97247 3.29377,-21.48362 -12,-35.14844 -0.26932,-0.24062 -0.55512,-0.46238 -0.82422,-0.70312 -13.09031,-11.71105 -24.21943,-25.27968 -36.12109,-38.11719 -4.83848,-5.21897 -0.61481,-9.65325 1.0664,-14.40039 1.46587,-4.1394 4.66454,-3.93676 7.97266,-3.69727 10.79605,0.78174 21.59986,1.48992 32.37891,2.46485 3.66493,0.33155 7.64647,0.02 10.53515,3.30664 0.87513,0.99572 2.48519,0.79612 3.5586,0.0644 3.65651,-2.49265 7.68097,-1.58371 11.57812,-1.32227 8.27581,0.55508 16.5386,1.32145 24.80476,2.01954 15.6268,1.31961 31.2563,2.61492 46.8769,4.00585 4.1458,0.36917 6.249,-1.43824 5.1485,-5.82031 -2.28,-9.07774 -3.6035,-18.42472 -7.2188,-27.14453 -0.7373,-1.77776 -1.1118,-4.10067 -3.664,-4.13867 -2.6671,-0.0398 -4.6815,1.56671 -5.1407,4.00586 -0.8076,4.28993 -3.4705,4.11297 -6.4472,3.13672 -4.7999,-1.57426 -9.4608,-3.58742 -14.2853,-5.07227 -22.57421,-6.94791 -45.08262,-14.09563 -67.39643,-21.84375 -2.5165,-0.87386 -5.99245,-1.41439 -5.83789,-4.74414 0.43096,-9.28646 -4.71589,-16.10962 -9.58789,-23.00391 -2.88875,-4.08787 -4.13287,-8.02088 -3.19922,-13.11132 0.77017,-4.19919 0.54256,-8.92345 -4.05273,-11.39844 -7.12245,-3.83604 -19.32775,-0.25129 -22.34375,7.27539 -2.60746,6.50724 -7.36733,9.75176 -13.02734,12.87305 -11.49785,6.34058 -23.7131,11.63545 -33.01953,21.40234 -1.66237,1.74464 -3.99373,2.51783 -6.3086,2.93555 -6.92271,1.24882 -13.87183,2.3479 -20.80859,3.51953 -3.25931,0.55052 -5.93818,-0.61175 -8.57031,-2.46094 -5.71565,-4.01546 -7.88906,-3.86729 -12.32813,1.45703 -2.82816,3.39238 -6.08682,5.93915 -10.40625,6.125 -10.69447,0.46018 -21.01432,3.23062 -31.55078,4.60938 -2.15349,0.28182 -4.68161,0.62275 -5.53711,-2.03907 -0.79814,-2.48311 -3.18135,-3.86684 -4,-6.43164 0.71038,-1.0621 1.35395,-2.13255 2.10156,-3.125 24.00751,-31.86871 47.54984,-64.0767 70.57032,-96.66796 33.86658,-47.9465 66.4572,-96.73648 96.62109,-147.09961 24.595,-41.06498 47.84119,-82.86491 65.42187,-127.55079 0.67864,-1.72489 0.99967,-4.0721 3.94336,-3.38476 4.71405,1.1007 8.32145,-0.90973 11.70505,-4.01563 3.3192,-3.04668 6.9424,-5.76279 10.4258,-8.63085 1.7004,-1.39996 3.3152,-2.1661 5.8399,-1.89844 5.3434,0.56642 10.7633,-0.62976 14.8301,-4.07032 2.6569,-2.24774 4.8722,-2.35585 7.8163,-1.87695 6.6479,1.08124 13.2068,4.07597 19.7754,0.87305 1.7259,1.51031 1.6259,3.17927 1.7168,4.79101 0.3466,6.12631 0.9053,12.24858 1.0097,18.37891 0.6794,39.90578 0.2372,79.8057 -2.242,119.64258 -1.87,30.04756 -4.201,60.06484 -7.2403,90.03125 -2.7465,27.08037 -5.8848,54.10879 -9.289,81.10742 -4.0129,31.82704 -8.935,63.52683 -14.0586,95.19336 -0.2734,1.68955 -1.1612,3.62088 1.2557,4.56055 1.5751,-0.38987 1.8226,-1.61997 2.045,-2.90039 1.079,-6.21604 2.2918,-12.41152 3.2461,-18.64649 5.3442,-34.92287 10.3232,-69.89202 14.5215,-104.97851 3.1066,-25.96306 6.0659,-51.93641 8.2657,-77.98829 2.3069,-27.32191 4.3663,-54.65319 5.664,-82.06054 2.0507,-43.31227 2.9923,-86.57542 -0.1016,-129.86914 -0.6555,-9.17427 -0.8734,-18.38194 -2.2578,-27.49024 -0.6222,-4.09257 0.8468,-6.41494 4.9493,-7.45703 3.6605,-0.92985 7.2032,-2.33709 10.7714,-3.60937 2.0093,-0.71643 3.9464,-1.81541 2.336,-4.30274 -1.9914,-3.07597 -3.5695,-6.67987 -7.6875,-8.07812 -2.6432,3.82303 -6.5653,5.25599 -10.4453,4.05078 -3.6211,-1.12474 -2.7824,-5.34875 -3.3341,-8.42969 -1.9337,-10.79877 -3.8052,-21.59983 -6.4336,-32.27344 -8.3259,-33.81096 -24.1875,-63.605345 -47.2754,-89.580074 -14.771,-16.618021 -31.85974,-30.355305 -51.55073,-40.789063 -1.81295,-0.960637 -4.54658,-1.73544 -3.13672,-4.667969 1.70066,-3.53752 3.31231,-7.306832 6.9707,-9.351562 1.16798,-0.652811 2.19002,-0.91417 2.14062,-2.578125 -0.12802,-4.316419 2.66677,-7.7276122 3.84766,-11.6523439 0.48822,-1.6224318 2.47884,-3.29589237 0.22852,-4.69335935 -0.60501,-0.37571425 -1.12839,-0.51550925 -1.5918,-0.48828125 z M 877.4082,14.330078 c 14.12001,0.442273 28.53397,2.308819 43.27149,5.582031 -3.20309,4.641823 -5.21245,7.755136 -10.58789,6.546875 -3.7736,-0.848216 -7.89607,-0.190236 -11.86133,-0.128906 -3.92294,0.06071 -7.62308,-2.407468 -12.50586,-0.847656 3.22691,5.088901 9.29545,5.201643 13.06641,8.662109 3.6927,3.388613 9.58593,4.262531 12.42773,10.50586 C 845.20295,26.331379 784.77098,33.544715 730.54102,76.859375 737.21258,65.154303 746.84647,56.689351 757.51758,49.222656 795.33905,24.48869 835.04817,13.003261 877.4082,14.330078 Z m 56.8711,10.080078 c 0.78898,0.09015 1.6377,0.307878 2.54492,0.648438 33.25951,12.485453 60.64223,32.746156 82.51368,60.757812 25.6309,32.826464 38.7871,70.469474 43.918,111.304684 0.8579,6.82786 -0.079,6.62169 -6.7442,7.79297 -9.5174,1.67248 -14.3536,-3.8063 -19.041,-10.23242 -1.0239,-1.40366 -2.0257,-2.58841 -3.9492,-2.12695 -2.8366,0.68055 -4.3922,2.29223 -5.4492,5.2539 -2.8021,7.85227 -7.7193,14.47363 -13.7559,20.17969 -1.3334,1.26031 -3.2732,2.84832 -5.3242,1.54492 -1.9173,-1.21842 -0.6811,-3.32168 -0.5488,-5.01953 2.7583,-35.44952 -2.1203,-69.43117 -19.27348,-101.08398 -3.53139,-6.51665 -7.42082,-12.7931 -12.06445,-18.583987 -13.19101,-17.422284 -28.81193,-30.929686 -47.54102,-40.542969 -5.10567,-2.62066 -7.50888,-5.703632 -7.18554,-11.4375 3.97538,1.224428 6.33196,4.08886 8.74218,6.958985 1.13016,1.34566 2.44893,2.96927 4.53907,2.24414 2.26434,-0.785551 1.45039,-2.798288 1.65429,-4.560547 0.49207,-4.251565 -0.86915,-9.164608 3.86719,-12.169921 0.90198,-0.572322 1.00547,-1.938272 0.23438,-2.935547 -1.182,-1.528474 -2.82485,-1.355175 -4.45704,-0.988282 -3.7195,0.836048 -7.26217,3.295362 -11.58789,1.251954 0.76753,-2.17333 2.44008,-3.650851 3.4668,-5.455078 1.24618,-2.189872 3.07446,-3.071235 5.44141,-2.800782 z M 852.19922,38.75 c 18.7683,0.11515 37.18597,3.175827 55.23242,9.505859 3.34232,1.172351 6.4378,2.31332 3.97656,7.007813 3.02063,1.260935 5.55906,3.55855 8.58789,0.714844 1.41275,-1.326417 2.93253,-1.650013 4.26758,-0.208985 1.32538,1.430722 0.0223,2.691878 -0.82422,3.794922 -5.4948,7.160189 -10.96701,14.337515 -16.55859,21.421875 -28.57024,36.197462 -59.66251,70.100882 -93.05078,101.896482 -6.40316,6.09767 -13.06907,11.92155 -19.61328,17.8711 -21.70461,19.15706 -43.50255,36.96051 -66.86328,52.78125 -2.5253,1.71024 -4.93427,3.47357 -8.3125,3.48437 -2.51987,0.008 -3.93904,2.28459 -5.44532,4.08399 -2.59168,3.0961 -4.13993,4.00028 -8.74414,5.04101 -1.51459,-2.78887 -0.82404,-5.94111 -1.08984,-8.89062 -2.5652,-28.46396 -2.53888,-56.9131 0.0215,-85.40235 2.10737,-23.44919 6.14293,-46.41546 13.73438,-68.76758 4.89358,-14.408542 16.03435,-23.428205 27.23437,-32.124996 25.96585,-20.162376 56.41409,-28.287554 88.5625,-31.355468 6.33354,-0.604412 12.62867,-0.891899 18.88477,-0.853516 z m 77.09375,20.439453 c -11.23831,15.349675 -22.19662,30.91492 -35.28711,44.828127 -7.22399,11.29539 -16.9721,19.62947 -24.78906,29.59375 -0.36904,-0.31082 -0.73832,-0.62082 -1.10742,-0.93164 8.22596,-9.31914 16.45178,-18.63793 24.67773,-27.95703 7.60162,-11.131034 16.70924,-20.22597 24.19922,-30.589848 3.77663,-5.225844 7.85441,-10.233792 12.30664,-14.943359 z M 710.69531,110.63672 c -2.15678,9.77344 -4.72727,19.47776 -6.39453,29.33398 -5.49121,32.46178 -7.50158,65.14511 -5.375,98.04492 0.54653,8.45473 0.61924,16.95031 1.45313,25.37305 0.495,4.99966 -1.20521,7.84074 -5.78321,9.49414 -2.50159,0.90348 -4.83793,2.2669 -8.23828,3.89649 -3.42816,-28.6173 -4.30728,-56.47229 -1.05273,-84.41992 2.9558,-29.62509 10.39234,-56.83867 25.39062,-81.72266 z M 58.740234,121.2168 112.06828,152.25203 c 20.9042,12.67234 43.79561,23.34251 53.93217,28.85743 5.80811,3.53526 14.56693,6.46612 13.8907,7.89049 -0.71302,1.50186 -2.97891,4.79253 -4.20971,3.67494 -0.38444,-0.34907 -2.82779,-1.43786 -12.53338,-6.46372 -6.29537,-2.80213 -55.54961,-30.74426 -78.531717,-43.23851 -9.33244,-5.30262 -63.930442,-37.15702 -70.356577,-41.0586 C 11.271509,100.09976 9.1965678,98.334368 4.5019925,95.622888 -1.1440104,92.361885 -2.9018326,86.416524 5.4902358,91.1543 Z M 862.9707,140.59766 c -3.19593,4.92098 -9.53261,10.75223 -15.35937,16.92578 -31.47203,33.34526 -64.68845,64.81976 -101.14063,92.74414 -2.56566,1.9655 -5.00799,5.04145 -9.83008,1.89062 14.00802,-11.18823 28.46856,-21.1173 41.52149,-32.76758 20.4027,-16.74661 38.91409,-34.40904 57.0957,-52.44726 9.66484,-9.58858 19.72822,-18.77675 27.71289,-26.3457 z m -644.39266,67.07341 c 21.66679,11.02176 37.13634,20.37347 58.95126,31.09651 10.94643,5.38064 32.48549,13.78275 43.23047,19.68164 -11.98765,-5.16808 -34.22915,-14.04678 -46.2168,-19.21484 -4.65632,-1.95313 -22.55554,-11.03561 -40.20564,-19.04845 -8.52954,-3.87226 -15.86979,-7.00909 -22.53921,-9.8311 -1.57685,-0.66721 -1.13823,-1.02156 0.51886,-0.82477 0.42138,0.05 2.09621,-0.46638 2.15087,-1.30934 0.0597,-0.92044 -1.24111,-2.51659 -1.52939,-2.92688 -1.41376,-2.01209 2.88271,0.82128 5.63958,2.37723 z m 834.28136,10.02815 c -0.7709,3.69268 -3.7034,3.03514 -5.418,4.11719 -2.1336,0.59188 -3.6937,1.89408 -4.9531,-0.58203 2.6815,-3.06124 6.4022,-2.68976 10.3711,-3.53516 z m 12.8867,1.00586 c 2.0415,6.98435 2.2035,13.78069 1.9043,20.92383 -4.6601,-0.25738 -8.0517,-2.5037 -11.7774,-3.65235 -3.5362,-1.61271 -6.3134,-2.90104 -9.0937,-4.18164 -1.6216,-0.74685 -2.5409,-1.90373 -2.4609,-3.79101 0.086,-2.00194 1.4044,-2.74838 3.041,-3.28125 5.9612,-1.94096 11.9172,-3.89828 18.3867,-6.01758 z m -54.3691,18.31054 c 1.0618,-0.20828 2.067,-0.22329 2.8867,0.0176 3.6991,1.08705 4.6984,3.88125 2.0468,6.79688 -4.586,5.04296 -9.4486,9.83355 -14.1953,14.73047 -3.17539,0.44133 -2.24932,-1.51051 -1.9922,-2.58594 1.0836,-4.52984 2.2884,-9.03517 3.629,-13.49609 0.7416,-2.46758 4.4394,-4.83803 7.625,-5.4629 z m 34.707,2.60157 c 2.0856,0.33704 3.8791,1.60323 5.9355,2.95312 -2.3054,0.96156 -3.9572,-0.0178 -5.6523,-0.12304 -1.4943,-0.81556 -2.8156,-0.95645 -2.4863,-2.82618 0.7804,-0.12528 1.5079,-0.11625 2.2031,-0.004 z m 0.1992,6.0332 c 2.64,-0.52012 4.7781,1.19276 6.8438,3.25781 -3.4687,0.58955 -6.9201,1.22399 -9.6661,-1.92187 1.0074,-0.73923 1.9423,-1.16257 2.8223,-1.33594 z m -723.90429,12.91797 c 4.48891,1.87184 8.9794,3.74366 13.46679,5.61914 0.16233,0.0678 0.33955,0.14744 0.45313,0.27344 0.66159,0.7338 0.15767,0.74128 -0.4375,0.67968 -4.96057,-2.00624 -9.40573,-3.79026 -13.85156,-5.57421 0.12319,-0.33247 0.24597,-0.66558 0.36914,-0.99805 z m 389.64453,8.89062 c 0.93918,1.6418 1.70244,2.9764 2.76953,4.8418 -46.2999,28.17809 -96.51627,41.29148 -150.30664,41.60352 14.91108,-1.60045 29.709,-3.99718 44.45508,-6.72852 36.8882,-8.146 71.02125,-20.93391 103.08203,-39.7168 z m -349.39649,7.26954 c 6.59842,2.64106 13.19651,5.28078 19.79493,7.92187 8.57549,2.98923 16.57769,5.49131 24.58007,7.99219 -8.07438,-1.47284 -15.87298,-3.78358 -23.32617,-7.15235 -7.893,-1.94991 -14.529,-5.19418 -21.04883,-8.76171 z m 338.53125,10.80859 c 1.52929,0.66124 1.97988,3.34544 2.88868,8.71289 0.86542,5.11139 1.80295,10.211 2.69531,15.24609 -4.60653,1.90012 -8.03363,5.9108 -14.29102,5.32813 -1.26186,-7.17147 -2.6142,-14.67208 -3.88476,-22.1875 -0.40928,-2.42112 1.67605,-2.86487 3.23047,-3.67383 5.2238,-2.72508 7.83203,-4.08703 9.36132,-3.42578 z m -4.00976,35.64062 c 0.81389,0.0333 1.67547,0.411 2.52344,0.89258 0.42591,2.41467 -1.32475,2.56264 -2.88282,2.90039 -1.77768,-0.63558 -2.65109,-1.57249 -1.8789,-2.62109 0.65876,-0.89457 1.42439,-1.20515 2.23828,-1.17188 z m 232.98437,346.34766 c 2.31534,0.80106 2.12338,2.5861 1.61524,4.45117 -1.57069,2.21004 -3.00977,2.63269 -4.41407,1.04883 -1.15362,-1.30119 -0.43492,-2.74789 0.26758,-4.02148 0.52262,-0.94755 1.20275,-1.93804 2.53125,-1.47852 z m -104.47656,1.63477 c 1.1664,-0.17891 2.30293,0.64686 3.17187,1.45703 6.16955,5.75229 12.25586,11.59293 18.35743,17.41797 2.69878,2.57645 0.65241,4.97493 -0.40625,7.33007 -0.90853,2.02122 -1.96334,4.10076 -4.81055,2.41016 -6.00189,-8.25143 -11.47917,-16.02076 -16.89648,-23.83203 -0.87366,-1.25972 -2.34085,-2.77515 -0.58399,-4.23242 0.38638,-0.3205 0.77917,-0.49115 1.16797,-0.55078 z m 115.19336,0.1914 c 1.07481,0.0623 2.06444,0.69897 2.95898,1.4961 1.23109,1.09694 0.4194,2.71223 -0.28906,3.9414 -0.96103,1.66732 -2.59469,1.78547 -4.22656,1.29102 -2.54536,-0.77109 -2.38968,-2.7359 -1.9082,-4.77735 1.23018,-1.50072 2.39003,-2.01343 3.46484,-1.95117 z m 11.45703,2.81055 c 0.80125,0.1319 1.6245,0.50163 2.3418,0.87695 1.3031,0.68181 1.44467,2.04459 1.11523,3.3125 -0.71944,2.76944 -2.83782,2.16032 -4.80078,1.83399 -2.57921,-1.98558 -2.46879,-3.99274 -0.86523,-5.47071 0.62827,-0.5791 1.40773,-0.68463 2.20898,-0.55273 z m 10.83008,3 c 0.85764,-0.0688 1.85991,0.29181 2.79492,0.50781 3.3107,0.76468 6.60973,1.57547 9.91406,2.36719 5.37875,1.95344 10.86597,1.57121 14.48633,6.58984 -5.42999,1.44451 -10.14686,-0.70276 -14.94141,-1.20507 -3.72611,-0.39034 -7.40271,-1.31557 -11.08007,-2.09961 -2.13358,-0.45483 -3.71762,-1.52676 -3.10352,-4.09375 0.35873,-1.49946 1.07205,-1.99765 1.92969,-2.06641 z m -153.83594,2.62695 c 1.20046,-3.4e-4 1.96835,0.76881 1.90625,2.10352 -1.05059,3.74655 -3.00375,5.25106 -6.15234,5.04492 -6.97571,-0.45662 -13.95643,-0.86586 -20.92188,-1.44727 -1.74821,-0.14596 -3.82523,-0.62282 -3.71484,-3.0332 0.0756,-1.65243 1.49132,-2.48155 3.03515,-2.50195 8.61539,-0.11396 17.23149,-0.16402 25.84766,-0.16602 z m -41.87695,0.18946 c 2.13193,0.0585 3.82187,-0.063 3.67187,1.98242 -0.0869,1.18545 -1.29755,1.56215 -2.375,1.62695 -1.36932,0.0823 -3.08297,0.37495 -3.53515,-1.35547 -0.39756,-1.52135 0.96255,-2.01078 2.23828,-2.2539 z m 150.25586,3.67578 c 8.68488,1.57843 17.37428,3.13304 26.06836,4.66015 2.74907,0.48288 4.94582,1.32865 4.32617,4.82617 -0.59325,3.34806 -1.84275,5.82558 -5.91602,5.48438 -9.15922,-0.76701 -18.33942,-1.30703 -27.48437,-2.21094 -5.10341,-0.50436 -5.78055,-3.06036 -2.99024,-9.79492 1.733,-2.75488 3.61244,-3.3981 5.9961,-2.96484 z m -91.22266,4.83398 c 6.01102,5.02842 8.86113,10.75575 12.10352,16.13867 0.71362,1.18472 1.36768,3.32961 -1.56446,3.22657 -4.92808,-5.6521 -7.72974,-11.72554 -10.53906,-19.36524 z m 180.42387,0.42774 c 2.9364,-0.11414 5.1318,1.50025 7.4336,1.98437 1.2507,0.54841 1.8412,0.84922 3.6914,1.79492 -5.473,0.0259 -9.3908,-0.50259 -14.3399,-2.98242 1.1746,-0.52766 2.236,-0.75883 3.2149,-0.79687 z m -49.64652,1.75586 c 3.03742,0.17339 6.09716,0.54311 9.07031,1.17968 7.69215,1.64682 15.71412,1.6728 23.125,4.68946 1.59093,3.84521 0.50377,5.66882 -2.94336,5.44336 -10.39922,-0.68015 -20.79125,-1.48734 -31.1836,-2.26954 -2.19753,-0.16535 -3.34918,-1.35056 -2.82226,-3.59765 0.61348,-2.61667 1.04969,-5.65683 4.75391,-5.44531 z m 41.38867,6.76171 c 0.93309,-0.24492 2.10415,-0.0555 3.21875,0.18164 3.3245,1.27791 8.3098,-0.005 7.3945,4.40235 -0.7754,3.73304 -4.9077,0.93629 -7.498,1.06836 -2.15309,0.10965 -5.26942,0.33261 -4.89846,-3.23438 0.15543,-1.49456 0.85011,-2.17305 1.78321,-2.41797 z m 23.64255,4.26563 c 2.6568,0.29891 5.9981,1.38008 10.7051,3.30078 h -10.9824 c -2.6265,-0.62467 -4.702,-0.39882 -6.3203,-1.9082 1.9689,-1.20748 3.9409,-1.69149 6.5976,-1.39258 z m -190.54685,19.14844 c 0.316,3.82842 -1.62089,4.41564 -3.17578,5.06445 -5.62358,2.34669 -11.29517,4.58519 -16.98047,6.7793 -1.74046,0.67162 -3.84742,1.42314 -2.70312,-2 7.73416,-3.88021 14.86866,-7.44238 22.85937,-9.84375 z m 71.67383,1.24218 c 1.08439,-0.3633 2.33823,0.0857 3.74023,1.65039 4.42638,4.93979 8.61376,10.09788 12.83399,15.21875 1.47751,1.79272 1.95306,3.87676 0.63086,5.98633 -1.3195,2.10522 -2.97642,1.45302 -4.61133,0.36328 -4.86804,-4.57504 -9.09201,-8.72325 -13.40821,-12.77343 -2.19395,-2.05885 -3.13785,-4.33787 -1.90624,-7.21875 0.72125,-1.68713 1.63631,-2.86327 2.7207,-3.22657 z m -76.14844,10.54102 c 1.82605,2.90931 0.49873,4.85906 -1.7832,5.88281 -8.84243,3.96697 -17.98764,7.13753 -27.36914,9.58985 -0.3699,0.0966 -0.90163,-0.42645 -2.11914,-1.05079 5.76022,-6.59805 13.94253,-7.81054 20.91796,-11.14453 3.94602,-1.33498 6.92349,-3.08363 10.35352,-3.27734 z m 69.39258,2.59961 c 1.92625,-0.57896 3.54716,1.48634 5.06055,2.89258 4.62359,4.2964 9.12689,8.72104 13.67773,13.0957 1.73934,1.67189 3.06273,3.46361 2.77734,6.13086 -0.50944,4.76234 -2.94419,6.05781 -6.71289,3.19922 -3.87538,-2.9394 -7.5362,-6.16143 -11.29101,-9.25977 -2.29636,-1.82328 -4.04079,-3.10565 -5.68946,-4.50195 -3.95368,-3.34861 -2.33022,-6.86403 0.14258,-9.97461 0.71751,-0.90257 1.39308,-1.38905 2.03516,-1.58203 z m -74.6211,11.07812 c 1.02218,0.1764 1.87488,0.81102 2.4375,2.21094 1.18868,2.95761 -0.70226,4.89305 -3.14062,5.98047 -7.24905,3.23293 -15.12367,4.50387 -22.63672,6.93164 -3.06837,0.99147 -6.24658,1.64159 -9.375,2.44727 -2.17916,0.49545 -3.58392,0.72014 -4.58789,-0.90235 0.85695,-3.44349 3.02527,-5.57342 6.32617,-6.69531 9.18065,-3.12037 18.36848,-6.219 27.51758,-9.42969 1.24375,-0.43647 2.43681,-0.71936 3.45898,-0.54297 z m 106.38282,1.53125 c 1.5441,0.11685 2.56435,2.15605 3.83008,3.10938 0.56136,0.42282 0.99256,1.01949 1.48046,1.53906 1.95662,2.08372 3.64269,4.5279 1.09375,6.95508 -2.43482,2.31864 -4.07813,-0.56695 -5.83203,-1.79883 -0.71328,-0.50105 -1.23877,-1.27102 -1.84961,-1.91797 -2.26262,-2.83511 -2.82294,-5.46935 -0.4707,-7.25195 0.6598,-0.50008 1.23335,-0.67371 1.74805,-0.63477 z m -145.27735,1.84375 c 1.07754,0.16692 2.04175,0.65155 2.77735,1.48438 -3.85939,3.03127 -7.65094,4.6024 -12.39649,4.77734 2.13705,-4.403 6.38653,-6.76245 9.61914,-6.26172 z m 108.67188,1.04297 c 0.78184,0.33382 1.47779,0.92396 2.16406,1.48047 5.16832,4.19073 10.28042,8.45014 15.41406,12.68359 1.63915,1.48908 2.77366,2.39717 3.72657,3.4668 3.03941,3.41196 1.43203,7.07282 -0.43164,9.95899 -2.21897,3.43623 -4.83951,0.40323 -6.87891,-0.91602 -6.19025,-4.00402 -12.28024,-8.17158 -18.29688,-12.43359 -4.75969,-3.37169 -3.71664,-11.76317 1.6211,-14.1836 1.03131,-0.46759 1.8998,-0.39046 2.68164,-0.0566 z m -131.37305,5.42383 c 3.22889,-0.19411 2.67147,1.92991 0.79297,3.66211 -3.6566,0.62605 -6.61093,1.12314 -10.10742,-0.12891 2.8531,-2.94388 6.32709,-3.35358 9.31445,-3.5332 z m 181.14258,5.10547 c 4.77843,2.64676 8.18241,6.5131 11.83789,11.82226 -5.28476,-0.47803 -8.21586,-2.96311 -11.19336,-5.3496 -1.99193,-2.17122 -2.50028,-3.89753 -0.64453,-6.47266 z m -16.50977,0.0117 c 1.26423,0.10046 2.28312,1.38484 3.32618,2.14844 1.01024,0.73981 1.85872,1.70026 2.77929,2.5625 2.16547,2.3636 2.41389,4.43986 1.80469,6.65625 -0.41733,1.51838 -1.36011,2.92397 -3.05078,2.24023 -3.55911,-1.43921 -6.84724,-3.50194 -8.01953,-7.44141 -0.62917,-2.1142 -0.27791,-4.55416 1.80469,-5.80859 0.48592,-0.29272 0.93406,-0.39091 1.35546,-0.35742 z m -148.75585,0.0332 c 0.0121,5.75084 -0.89647,6.518 -10.75,9.6211 -1.95655,0.28869 -3.23334,0.84762 -4.56641,-0.63868 3.04397,-6.47994 9.44546,-7.00915 15.31641,-8.98242 z m -28.31446,4.25 c 2.48366,-0.0839 5.06439,0.31948 7.67969,0.0703 -0.27797,3.9494 -1.9341,6.03388 -4.34766,7.6875 -4.2585,-0.51672 -7.64832,-1.42816 -10.43164,-4.91015 2.2289,-2.19292 4.61595,-2.76377 7.09961,-2.84766 z m 191.32031,8.9668 c 6.0263,-0.19972 9.41837,2.96241 12.93165,7.14453 -5.35277,2.24794 -9.66464,0.50144 -13.5625,-1.83203 -2.60859,-1.56156 -1.01669,-3.68783 0.63085,-5.3125 z m -17.38085,1.10351 c 6.92649,1.96786 10.13555,9.22042 6.77148,15.44922 -9.35743,-1.08221 -13.30878,-6.65967 -10.36719,-13.26758 0.72732,-1.63372 1.48937,-2.77998 3.59571,-2.18164 z m 16.55859,10.52149 c 0.98473,0.003 2.24563,0.22593 3.83984,0.60742 3.62744,0.86806 7.89043,0.64841 10.72071,5.29297 -6.01043,2.34629 -11.61475,3.32354 -17.56836,1.72461 -0.42118,-5.6538 0.0536,-7.63275 3.00781,-7.625 z"
   sodipodi:nodetypes="sscsssssssssssscssssccssssscssssccsssccscsssscscccscccsssscccsssscsssssscssscsssscsssssscsssssssssssssssscssssssssssssssssssssssssscssssssccsssssssssccssssscscsssssssscssssssssssssscsscscccsscssssscsscscscsssssscsssscssssscssscssssssscccccsccssssccccccssccsssccssccsccsccsssssccccccccscscsscccsssscccsssccscsccccccccccccccssccscssccssscssssssscssssssscsssscssssccssssscssssscssscssssscscsccscccssscssssscssssscccscssccsssscssscsscccssssscsssssssccsssssssscsssccssccsscsssssccsccccsscsssssccccscccssccscccsccsccc" />
</svg>
